<svg width="49" height="64" viewBox="0 0 49 64" fill="none" xmlns="http://www.w3.org/2000/svg">
<path d="M32.3029 46.5139V29.0453C32.3029 24.2853 28.4305 20.414 23.6716 20.414H20.5388V18.7847H23.1319C23.9712 18.7847 24.6516 18.1042 24.6516 17.265C24.6516 16.4257 23.9711 15.7452 23.1319 15.7452L20.5388 15.7441H9.31543C8.47612 15.7441 7.79568 16.4246 7.79568 17.2639C7.79568 18.1032 8.47615 18.7836 9.31543 18.7836H11.9085V20.4129L8.77676 20.414C4.01683 20.414 0.145461 24.2864 0.145461 29.0453V46.5139C0.145461 50.0526 2.28773 53.0997 5.34227 54.4295L0.442751 61.0506C-0.0563227 61.7257 0.0853404 62.6767 0.760425 63.1757C1.43551 63.677 2.38967 63.5353 2.88553 62.8581L4.92045 60.1094H27.5302L29.5651 62.8581C29.8624 63.2616 30.3228 63.4731 30.7875 63.4731C31.102 63.4731 31.4186 63.3775 31.6902 63.1758C32.3653 62.6767 32.507 61.7258 32.0079 61.0507L27.1083 54.4295C30.1607 53.0997 32.303 50.0548 32.303 46.514L32.3029 46.5139ZM14.948 18.7852H17.4992V20.4144H14.948V18.7852ZM23.8552 55.1469L25.2773 57.0702H7.16785L8.58995 55.1469H23.8552ZM29.2646 46.5134C29.2646 49.5981 26.7553 52.1072 23.6708 52.1072H8.7769C5.69217 52.1072 3.18307 49.5979 3.18307 46.5134V29.0447C3.18307 25.96 5.69239 23.4509 8.7769 23.4509H23.6708C26.7555 23.4509 29.2646 25.9602 29.2646 29.0447V46.5134Z" fill="#195EB7"/>
<path d="M21.559 39.3564H10.9013C8.39306 39.3564 6.35156 37.315 6.35156 34.8066V30.6767C6.35156 28.1684 8.39295 26.127 10.9013 26.127H21.559C24.0672 26.127 26.1087 28.1683 26.1087 30.6767V34.8066C26.1076 37.3159 24.0673 39.3564 21.559 39.3564ZM10.9013 29.1677C10.0685 29.1677 9.3912 29.8449 9.3912 30.6778V34.8077C9.3912 35.6406 10.0684 36.3178 10.9013 36.3178H21.559C22.3918 36.3178 23.0691 35.6406 23.0691 34.8077V30.6778C23.0691 29.845 22.3918 29.1677 21.559 29.1677H10.9013Z" fill="#195EB7"/>
<path d="M13.2713 45.1459C13.2713 46.6571 12.0467 47.8817 10.5355 47.8817C9.02538 47.8817 7.80078 46.6571 7.80078 45.1459C7.80078 43.6348 9.02538 42.4102 10.5355 42.4102C12.0467 42.4102 13.2713 43.6348 13.2713 45.1459Z" fill="#195EB7"/>
<path d="M24.6502 45.1459C24.6502 46.6571 23.4256 47.8817 21.9144 47.8817C20.4043 47.8817 19.1797 46.6571 19.1797 45.1459C19.1797 43.6348 20.4043 42.4102 21.9144 42.4102C23.4256 42.4102 24.6502 43.6348 24.6502 45.1459Z" fill="#195EB7"/>
<circle cx="30.0455" cy="18.7955" r="16.2721" fill="#D1E5FF" stroke="#195EB7" stroke-width="4"/>
<path d="M35.621 13.9081L28.8417 21.4095L25.0998 18.4052C24.3981 17.8423 23.3722 17.954 22.8081 18.6557C22.2447 19.3579 22.3569 20.3839 23.0586 20.9474L28.0002 24.9143C28.3006 25.1555 28.6608 25.2735 29.02 25.2735C29.4654 25.2735 29.9088 25.091 30.23 24.7365L38.0401 16.0943C38.6435 15.4259 38.5921 14.3956 37.9236 13.7922C37.2557 13.1882 36.2244 13.2402 35.621 13.9081L35.621 13.9081Z" fill="#195EB7"/>
</svg>
